<?xml version="1.0" encoding="UTF-8"?>
<svg id="_레이어_2" data-name="레이어 2" xmlns="http://www.w3.org/2000/svg" viewBox="0 0 48 48">
  <defs>
    <style>
      .cls-1 {
        fill: none;
      }

      .cls-1, .cls-2 {
        stroke-width: 0px;
      }
    </style>
  </defs>
  <g id="Layer_2" data-name="Layer 2">
    <g>
      <rect class="cls-1" width="48" height="48"/>
      <circle class="cls-2" cx="24" cy="24" r="12"/>
      <rect class="cls-2" x="22" y="4" width="4" height="6" rx="2" ry="2"/>
      <rect class="cls-2" x="22" y="38" width="4" height="6" rx="2" ry="2"/>
      <rect class="cls-2" x="39" y="21" width="4" height="6" rx="2" ry="2" transform="translate(65 -17) rotate(90)"/>
      <rect class="cls-2" x="5" y="21" width="4" height="6" rx="2" ry="2" transform="translate(31 17) rotate(90)"/>
      <rect class="cls-2" x="34.02" y="8.98" width="4" height="6" rx="2" ry="2" transform="translate(19.02 -21.96) rotate(45)"/>
      <rect class="cls-2" x="9.98" y="33.02" width="4" height="6" rx="2" ry="2" transform="translate(28.98 2.08) rotate(45)"/>
      <rect class="cls-2" x="34.02" y="33.02" width="4" height="6" rx="2" ry="2" transform="translate(86.96 36.02) rotate(135)"/>
      <rect class="cls-2" x="9.98" y="8.98" width="4" height="6" rx="2" ry="2" transform="translate(28.92 11.98) rotate(135)"/>
    </g>
  </g>
</svg>