<svg width="24" height="24" viewBox="0 0 24 24" fill="none" xmlns="http://www.w3.org/2000/svg">
<circle cx="12" cy="12" r="5" stroke="black" stroke-width="2"/>
<rect x="11" y="2" width="2" height="3" rx="1" fill="black"/>
<rect x="11" y="19" width="2" height="3" rx="1" fill="black"/>
<rect x="22" y="11" width="2" height="3" rx="1" transform="rotate(90 22 11)" fill="black"/>
<rect x="5" y="11" width="2" height="3" rx="1" transform="rotate(90 5 11)" fill="black"/>
<rect x="18.364" y="4.22183" width="2" height="3" rx="1" transform="rotate(45 18.364 4.22183)" fill="black"/>
<rect x="6.34315" y="16.2426" width="2" height="3" rx="1" transform="rotate(45 6.34315 16.2426)" fill="black"/>
<rect x="19.7782" y="18.364" width="2" height="3" rx="1" transform="rotate(135 19.7782 18.364)" fill="black"/>
<rect x="7.75736" y="6.34315" width="2" height="3" rx="1" transform="rotate(135 7.75736 6.34315)" fill="black"/>
</svg>
